<?xml version="1.0" encoding="UTF-8" standalone="no"?>
<svg
   width="128"
   height="128"
   version="1.1"
   id="svg6"
   sodipodi:docname="icon.svg"
   inkscape:version="1.4.2 (f4327f4, 2025-05-13)"
   inkscape:export-batch-path="src\assets\images\sprites\frog"
   inkscape:export-batch-name=""
   xmlns:inkscape="http://www.inkscape.org/namespaces/inkscape"
   xmlns:sodipodi="http://sodipodi.sourceforge.net/DTD/sodipodi-0.dtd"
   xmlns:xlink="http://www.w3.org/1999/xlink"
   xmlns="http://www.w3.org/2000/svg"
   xmlns:svg="http://www.w3.org/2000/svg">
  <defs
     id="defs6">
    <linearGradient
       id="swatch39"
       inkscape:swatch="solid">
      <stop
         style="stop-color:#ff3c8c;stop-opacity:1;"
         offset="0"
         id="stop39" />
    </linearGradient>
    <linearGradient
       id="swatch28"
       inkscape:swatch="solid">
      <stop
         style="stop-color:#ff84ac;stop-opacity:1;"
         offset="0"
         id="stop28" />
    </linearGradient>
    <linearGradient
       id="swatch27"
       inkscape:swatch="solid">
      <stop
         style="stop-color:#ff3c8c;stop-opacity:1;"
         offset="0"
         id="stop27" />
    </linearGradient>
    <linearGradient
       id="swatch12"
       inkscape:swatch="solid">
      <stop
         style="stop-color:#00ca51;stop-opacity:1;"
         offset="0"
         id="stop12" />
    </linearGradient>
    <linearGradient
       id="swatch8"
       inkscape:swatch="solid"
       gradientTransform="matrix(0.07323271,0,0,0.06980087,-141.10371,-524.7161)">
      <stop
         style="stop-color:#ffffff;stop-opacity:1;"
         offset="0"
         id="stop8" />
    </linearGradient>
    <linearGradient
       id="swatch6"
       inkscape:swatch="solid"
       gradientTransform="matrix(0.36907406,-0.03971025,-0.13349252,-0.1754868,2147.0956,-2100.4558)">
      <stop
         style="stop-color:#000000;stop-opacity:1;"
         offset="0"
         id="stop6" />
    </linearGradient>
    <linearGradient
       inkscape:collect="always"
       xlink:href="#swatch8"
       id="linearGradient8"
       x1="617"
       y1="526"
       x2="833"
       y2="526"
       gradientUnits="userSpaceOnUse"
       gradientTransform="matrix(0.05768911,0,0,0.05469419,113.71139,-31.473776)" />
    <linearGradient
       inkscape:collect="always"
       xlink:href="#swatch6"
       id="linearGradient9"
       gradientUnits="userSpaceOnUse"
       x1="247"
       y1="532"
       x2="777"
       y2="532"
       gradientTransform="matrix(0.05094449,0,0,0.04829971,36.904968,25.515671)" />
    <linearGradient
       inkscape:collect="always"
       xlink:href="#swatch6"
       id="linearGradient10"
       gradientUnits="userSpaceOnUse"
       x1="247"
       y1="532"
       x2="777"
       y2="532"
       gradientTransform="matrix(0.05768911,0,0,0.05469419,113.85241,-37.33465)" />
    <linearGradient
       inkscape:collect="always"
       xlink:href="#swatch6"
       id="linearGradient18"
       gradientUnits="userSpaceOnUse"
       gradientTransform="matrix(0.08040926,0,0,0.0807477,147.26623,-23.112914)"
       x1="247"
       y1="532"
       x2="777"
       y2="532" />
    <linearGradient
       inkscape:collect="always"
       xlink:href="#swatch8"
       id="linearGradient19"
       gradientUnits="userSpaceOnUse"
       gradientTransform="matrix(0.08040926,0,0,0.0807477,136.99618,-17.412917)"
       x1="617"
       y1="526"
       x2="833"
       y2="526" />
    <linearGradient
       inkscape:collect="always"
       xlink:href="#swatch6"
       id="linearGradient20"
       gradientUnits="userSpaceOnUse"
       gradientTransform="matrix(0.08040926,0,0,0.0807477,137.19274,-23.112914)"
       x1="247"
       y1="532"
       x2="777"
       y2="532" />
    <linearGradient
       inkscape:collect="always"
       xlink:href="#swatch6"
       id="linearGradient26"
       gradientUnits="userSpaceOnUse"
       gradientTransform="matrix(-0.05094449,0,0,0.04829971,91.128193,25.515671)"
       x1="247"
       y1="532"
       x2="777"
       y2="532" />
    <linearGradient
       inkscape:collect="always"
       xlink:href="#swatch28"
       id="linearGradient28"
       x1="56.540327"
       y1="7.8434186"
       x2="67.035837"
       y2="7.8434186"
       gradientUnits="userSpaceOnUse"
       gradientTransform="matrix(0.95501328,0,0,0.95501328,4.9915611,3.7753949)" />
    <linearGradient
       inkscape:collect="always"
       xlink:href="#swatch28"
       id="linearGradient29"
       gradientUnits="userSpaceOnUse"
       gradientTransform="matrix(0.95501328,0,0,0.95501328,8.0032521,-94.478878)"
       x1="56.540327"
       y1="7.8434186"
       x2="67.035837"
       y2="7.8434186" />
    <linearGradient
       inkscape:collect="always"
       xlink:href="#swatch6"
       id="linearGradient30"
       gradientUnits="userSpaceOnUse"
       gradientTransform="matrix(0.05094449,0,0,0.04829971,110.14507,-125.36458)"
       x1="247"
       y1="532"
       x2="777"
       y2="532" />
  </defs>
  <sodipodi:namedview
     id="namedview6"
     pagecolor="#505050"
     bordercolor="#eeeeee"
     borderopacity="1"
     inkscape:showpageshadow="0"
     inkscape:pageopacity="0"
     inkscape:pagecheckerboard="0"
     inkscape:deskcolor="#505050"
     inkscape:zoom="5.6568543"
     inkscape:cx="-68.059027"
     inkscape:cy="-216.72823"
     inkscape:window-width="1920"
     inkscape:window-height="991"
     inkscape:window-x="-9"
     inkscape:window-y="-9"
     inkscape:window-maximized="1"
     inkscape:current-layer="svg6" />
  <rect
     style="font-variation-settings:normal;opacity:1;fill:#ff3c8c;fill-opacity:1;stroke:url(#swatch6);stroke-width:8;stroke-linecap:round;stroke-linejoin:round;stroke-miterlimit:100;stroke-dasharray:none;stroke-dashoffset:0;stroke-opacity:1;paint-order:stroke markers fill"
     id="rect28"
     width="5.8910275"
     height="19.141562"
     x="61.054482"
     y="8.1855402" />
  <g
     id="g37"
     inkscape:label="tongue"
     transform="matrix(0,1.9999967,-1.9999967,0,-213.12461,-412.73964)">
    <g
       id="rect28-8"
       inkscape:label="tongue"
       style="opacity:1">
      <path
         style="baseline-shift:baseline;display:inline;overflow:visible;vector-effect:none;stroke-linecap:round;stroke-linejoin:round;stroke-miterlimit:100;paint-order:stroke markers fill;enable-background:accumulate;stop-color:#000000;stop-opacity:1"
         d="m 86.726562,-94.855469 v 19.142578 h 13.890628 v -19.142578 z"
         id="path43"
         sodipodi:nodetypes="ccccc" />
      <path
         style="baseline-shift:baseline;display:inline;overflow:visible;vector-effect:none;fill:url(#swatch39);stroke-linecap:round;stroke-linejoin:round;stroke-miterlimit:100;paint-order:stroke markers fill;enable-background:accumulate;stop-color:#000000;stop-opacity:1"
         d="m 90.725685,-94.85537 h 5.891028 v 19.141562 h -5.891028 z"
         id="path44" />
    </g>
    <rect
       style="font-variation-settings:normal;opacity:1;fill:none;fill-opacity:1;stroke:#000000;stroke-width:0;stroke-linecap:round;stroke-linejoin:miter;stroke-miterlimit:100;stroke-dasharray:none;stroke-dashoffset:0;stroke-opacity:0;paint-order:stroke markers fill;stop-color:#000000;stop-opacity:1"
       id="rect37"
       width="5.8910275"
       height="19.141562"
       x="90.725685"
       y="-94.85537"
       inkscape:label="tongue" />
  </g>
  <path
     id="path15"
     style="fill:#00ca51;stroke:url(#swatch6);stroke-width:8;stroke-linecap:round;stroke-miterlimit:100;stroke-dasharray:none;paint-order:stroke markers fill"
     inkscape:transform-center-x="3.8649174"
     inkscape:transform-center-y="-4.4598658"
     d="m 101.68556,97.748664 c 4.80882,4.023746 12.57657,5.521216 10.4299,9.797956 -2.14666,4.27674 -10.71265,-5.95118 -14.069667,-2.54654 -3.357016,3.40464 6.924497,11.8927 2.685747,14.09196 -4.238757,2.19925 -5.167168,-11.14162 -9.872744,-10.36302 -4.705576,0.7786 -1.372496,13.72158 -6.08428,13.00331 -4.711783,-0.71827 -1.497958,-7.89805 -1.904756,-14.22118 -0.406798,-6.32314 -6.880831,-20.147449 0.109534,-23.669919 6.990364,-3.522465 13.897433,9.883696 18.706266,13.907433 z"
     sodipodi:nodetypes="zzzzzzzzz" />
  <path
     id="path16"
     style="fill:#00ca51;stroke:url(#swatch6);stroke-width:8;stroke-linecap:round;stroke-miterlimit:100;stroke-dasharray:none;paint-order:stroke markers fill"
     inkscape:transform-center-x="-3.8649164"
     inkscape:transform-center-y="-4.4598658"
     d="m 26.314447,97.748664 c -4.808829,4.023746 -12.576575,5.521216 -10.429912,9.797956 2.146662,4.27674 10.712659,-5.95118 14.069674,-2.54654 3.357016,3.40464 -6.9245,11.8927 -2.685749,14.09196 4.238759,2.19925 5.16717,-11.14162 9.872746,-10.36302 4.705576,0.7786 1.372496,13.72158 6.08428,13.00331 4.711783,-0.71827 1.497958,-7.89805 1.904756,-14.22118 0.406798,-6.32314 6.880831,-20.147449 -0.109534,-23.669919 -6.990364,-3.522465 -13.897433,9.883696 -18.706261,13.907433 z"
     sodipodi:nodetypes="zzzzzzzzz" />
  <path
     id="path14"
     style="fill:#00ca51;stroke:url(#swatch6);stroke-width:8;stroke-linecap:round;stroke-miterlimit:100;stroke-dasharray:none;paint-order:stroke markers fill"
     inkscape:transform-center-x="3.8649174"
     inkscape:transform-center-y="4.4598657"
     d="m 101.68556,43.569645 c 4.80882,-4.023743 12.57657,-5.521202 10.4299,-9.797948 -2.14666,-4.276738 -10.71265,5.951175 -14.069667,2.546541 -3.357016,-3.404635 6.924497,-11.892697 2.685747,-14.091954 -4.238757,-2.199255 -5.167168,11.141617 -9.872744,10.363019 -4.705576,-0.7786 -1.372496,-13.721587 -6.08428,-13.003314 -4.711783,0.718275 -1.497958,7.898047 -1.904756,14.221178 -0.406798,6.323132 -6.880831,20.147445 0.109534,23.669915 6.990364,3.522465 13.897433,-9.883696 18.706266,-13.907437 z"
     sodipodi:nodetypes="zzzzzzzzz" />
  <path
     id="path13-2"
     style="fill:#00ca51;stroke:url(#swatch6);stroke-width:8;stroke-linecap:round;stroke-miterlimit:100;stroke-dasharray:none;paint-order:stroke markers fill"
     inkscape:transform-center-x="-3.8649164"
     inkscape:transform-center-y="4.4598657"
     d="m 26.314447,43.569645 c -4.808829,-4.023743 -12.576575,-5.521202 -10.429912,-9.797948 2.146662,-4.276738 10.712659,5.951175 14.069674,2.546541 3.357016,-3.404635 -6.9245,-11.892697 -2.685749,-14.091954 4.238759,-2.199255 5.16717,11.141617 9.872746,10.363019 4.705576,-0.7786 1.372496,-13.721587 6.08428,-13.003314 4.711783,0.718275 1.497958,7.898047 1.904756,14.221178 0.406798,6.323132 6.880831,20.147445 -0.109534,23.669915 -6.990364,3.522465 -13.897433,-9.883696 -18.706261,-13.907437 z"
     sodipodi:nodetypes="zzzzzzzzz" />
  <g
     id="g35"
     inkscape:label="leg"
     transform="matrix(1.9999967,0,0,1.9999967,-229.89998,-54.828107)">
    <path
       id="path13-2-2"
       style="fill:#00ca51;stroke:url(#swatch6);stroke-width:8;stroke-linecap:round;stroke-miterlimit:100;stroke-dasharray:none;paint-order:stroke markers fill"
       inkscape:transform-center-x="-3.8649164"
       inkscape:transform-center-y="4.4598657"
       d="m 15.963785,-78.641349 c -4.808829,-4.023743 -12.5765748,-5.521202 -10.4299118,-9.797948 2.146662,-4.276738 10.7126588,5.951175 14.0696738,2.546541 3.357016,-3.404635 -6.9245,-11.892697 -2.685749,-14.091954 4.238759,-2.19925 5.16717,11.141617 9.872746,10.363019 4.705576,-0.7786 1.372496,-13.721579 6.08428,-13.003309 4.711783,0.71827 1.497958,7.898042 1.904756,14.221173 0.406798,6.323132 6.880831,20.147445 -0.109534,23.669915 -6.990364,3.522465 -13.897433,-9.883696 -18.706261,-13.907437 z"
       sodipodi:nodetypes="zzzzzzzzz"
       inkscape:label="leg" />
    <path
       id="path35"
       style="fill:none;stroke:#000000;stroke-width:12;stroke-linecap:round;stroke-miterlimit:100;stroke-dasharray:none;stroke-opacity:0;paint-order:stroke markers fill"
       inkscape:transform-center-x="-3.8649164"
       inkscape:transform-center-y="4.4598657"
       d="m 15.963785,-78.641349 c -4.808829,-4.023743 -12.5765748,-5.521202 -10.4299118,-9.797948 2.146662,-4.276738 10.7126588,5.951175 14.0696738,2.546541 3.357016,-3.404635 -6.9245,-11.892697 -2.685749,-14.091954 4.238759,-2.19925 5.16717,11.141617 9.872746,10.363019 4.705576,-0.7786 1.372496,-13.721579 6.08428,-13.003309 4.711783,0.71827 1.497958,7.898042 1.904756,14.221173 0.406798,6.323132 6.880831,20.147445 -0.109534,23.669915 -6.990364,3.522465 -13.897433,-9.883696 -18.706261,-13.907437 z"
       sodipodi:nodetypes="zzzzzzzzz"
       inkscape:label="leg" />
  </g>
  <path
     id="path13-2-5"
     style="vector-effect:none;fill:#00ca51;stroke:url(#swatch6);stroke-width:16;stroke-linecap:round;stroke-miterlimit:100;paint-order:stroke markers fill"
     inkscape:transform-center-x="-8.6184539"
     inkscape:transform-center-y="0.39654914"
     d="m -89.53464,102.84378 c -7.85698,-3.476194 -18.66189,-2.52469 -17.44493,-8.945274 1.21696,-6.42057 16.36687,3.78917 19.50834,-1.9411 3.14147,-5.730272 -13.61381,-13.011703 -8.85535,-17.490747 4.75847,-4.479044 11.01387,12.685707 16.923539,9.896329 5.909669,-2.789378 -3.365721,-18.528687 3.116674,-19.355354 6.482395,-0.826667 4.953476,9.805697 7.874511,17.953703 2.921035,8.148009 16.669504,23.864653 8.782665,31.114183 -7.886839,7.24952 -22.048471,-7.75555 -29.905449,-11.23174 z"
     sodipodi:nodetypes="zzzzzzzzz" />
  <path
     id="path8"
     style="fill:#00ca51;stroke:url(#swatch6);stroke-width:8;stroke-linecap:round;stroke-miterlimit:100;paint-order:stroke markers fill"
     d="m 96.132394,79.584315 c 0,-11.657699 -7.562204,-19.716936 -7.865784,-21.961265 -2.663828,-19.693331 -9.057651,-30.295949 -24.266609,-30.295949 -15.867666,0 -22.538787,9.971765 -24.289135,30.282623 -0.118534,1.37546 -7.810099,10.460552 -7.810099,21.70707 0,11.246517 15.157003,24.606656 32.099234,24.606656 16.942231,0 32.132393,-12.681437 32.132393,-24.339135 z"
     sodipodi:nodetypes="zssszsz" />
  <path
     id="path8-22"
     style="fill:#00ca51;stroke:url(#swatch6);stroke-width:8;stroke-linecap:round;stroke-miterlimit:100;paint-order:stroke markers fill"
     d="M 156,112.78839 C 156,91.63689 171.19017,65 188.1324,65 c 16.94223,0 32.09923,26.369369 32.09923,47.52087 0,21.15149 -15.157,29.07547 -32.09923,29.07547 -16.94223,0 -32.1324,-7.65646 -32.1324,-28.80795 z"
     sodipodi:nodetypes="sssss" />
  <ellipse
     style="fill:#00ca51;fill-opacity:1;stroke:url(#swatch6);stroke-width:8;stroke-linecap:round;stroke-miterlimit:100;stroke-dasharray:none;paint-order:stroke markers fill"
     id="path8-2"
     cx="296.67661"
     cy="42.298172"
     rx="30.676622"
     ry="38.298172" />
  <ellipse
     cx="52.261898"
     cy="56.096977"
     id="circle4"
     style="fill:url(#swatch8);stroke-width:0.101"
     rx="5.5020041"
     ry="5.2163682" />
  <ellipse
     cx="155.536"
     cy="-2.7046387"
     id="circle3"
     style="fill:url(#linearGradient8);stroke-width:0.101"
     rx="6.2304235"
     ry="5.9069715" />
  <path
     d="m 171.93278,43.925727 c -0.29189,0.03092 -1.73922,5.582356 -8.89861,5.649331 -4.83851,0.04527 -7.06848,-2.510679 -8.09555,-4.194124 -0.44695,-0.752097 -0.3835,-1.046077 -0.87637,-0.225652 -1.0291,1.658453 -3.26078,4.419776 -8.09448,4.419776 -6.94491,0 -8.51822,-5.701366 -8.87099,-5.640304 -0.0899,0.01557 -0.10092,0.405699 -0.10092,1.359931 0,4.697756 4.01692,8.50659 8.97191,8.50659 3.98509,0 6.88455,3.12184 8.0544,-0.28636 1.16985,3.4082 5.02691,0.28636 9.012,0.28636 4.95499,-2e-6 8.97191,-3.808835 8.97191,-8.50659 0,-0.936741 0.003,-1.334378 -0.0627,-1.367954 -5.4e-4,-2.29e-4 -0.003,-8.13e-4 -0.003,-10e-4 h -0.001 -0.001 c -10e-4,4e-5 -0.003,3.2e-5 -0.003,0 h -0.001 z"
     style="opacity:1;fill:#00ca51;stroke:url(#swatch6);stroke-width:7.99993;stroke-linecap:round;stroke-miterlimit:100;paint-order:stroke markers fill;stop-color:#000000;stop-opacity:1"
     id="path17"
     sodipodi:nodetypes="cssssssscssccccccc" />
  <ellipse
     cx="171.50516"
     cy="25.060369"
     id="circle4-5"
     style="fill:url(#swatch8);stroke-width:0.101"
     rx="8.6841993"
     ry="8.7207508" />
  <ellipse
     cx="171.95187"
     cy="19.844862"
     id="circle5-7"
     style="fill:url(#linearGradient18);fill-opacity:1;stroke-width:0.101"
     rx="4.8245554"
     ry="4.8448615" />
  <ellipse
     cx="195.29289"
     cy="25.060369"
     id="circle3-6"
     style="fill:url(#linearGradient19);stroke-width:0.101"
     rx="8.6841993"
     ry="8.7207508" />
  <ellipse
     cx="194.84618"
     cy="19.844862"
     id="circle6-1"
     style="fill:url(#linearGradient20);fill-opacity:1;stroke-width:0.101"
     rx="4.8245554"
     ry="4.8448615" />
  <path
     d="m 207.6964,23.038713 c -0.40686,0.04564 -2.42419,8.241504 -12.40323,8.340383 -6.74409,0.06683 -9.8523,-3.706638 -11.28387,-6.191991 -0.62298,-1.110357 -0.53455,-1.544374 -1.22152,-0.333141 -1.4344,2.448455 -4.545,6.525132 -11.28239,6.525132 -9.68008,0 -11.87302,-8.417206 -12.36473,-8.327057 C 159.01532,23.075019 159,23.650992 159,25.059772 c 0,6.935526 5.59893,12.558694 12.50539,12.558694 5.55456,0 10.26331,1.31015 11.89389,-3.721542 1.63058,5.031692 6.33933,3.721542 11.89389,3.721542 6.90646,-2e-6 12.5054,-5.623169 12.5054,-12.558694 0,-1.382957 0.004,-1.970007 -0.0874,-2.019578 -7.6e-4,-3.37e-4 -0.004,-0.0012 -0.005,-0.0015 h -0.001 -0.001 c -0.001,6e-5 -0.004,4.8e-5 -0.005,0 h -0.001 z"
     style="fill:#00ca51;stroke:url(#swatch6);stroke-width:7.99996;stroke-linecap:round;stroke-miterlimit:100;paint-order:stroke markers fill;stop-color:#000000"
     id="path17-8"
     sodipodi:nodetypes="cssssssscssccccccc" />
  <path
     id="circle12-1"
     style="fill:#00ca51;stroke:url(#swatch6);stroke-width:8;stroke-linecap:round;stroke-miterlimit:100;stroke-dasharray:none;paint-order:stroke markers fill;stop-color:#000000"
     d="m 226.37276,65.650278 c 0,9.14878 -7.38547,16.565331 -16.4959,16.565334 -9.11044,0 -16.49591,-7.416553 -16.49591,-16.565334 0,-9.148781 -0.1866,8.500523 16.49591,8.33522 16.68249,-0.165302 16.4959,-17.483999 16.4959,-8.33522 z"
     sodipodi:nodetypes="ssszs" />
  <path
     id="circle11-4"
     style="fill:#00ca51;stroke:url(#swatch6);stroke-width:8;stroke-linecap:round;stroke-miterlimit:100;stroke-dasharray:none;paint-order:stroke markers fill;stop-color:#000000"
     d="m 194.99391,65.650278 c 0,9.148781 -7.38546,16.565334 -16.4959,16.565334 -9.11044,0 -16.4959,-7.416553 -16.4959,-16.565334 0,-9.148781 0.47184,8.33522 16.4959,8.33522 16.02406,0 16.4959,-17.484001 16.4959,-8.33522 z"
     sodipodi:nodetypes="ssszs" />
  <path
     id="circle11-4-7"
     style="fill:#00ca51;stroke:url(#swatch6);stroke-width:8.00001;stroke-linecap:round;stroke-linejoin:round;stroke-miterlimit:100;stroke-dasharray:none;paint-order:stroke markers fill;stop-color:#000000"
     d="m 59.234864,59.15743 c 0,0 0.329472,5.657186 -6.972964,5.657186 -7.302436,0 -6.972964,-5.657186 -6.972964,-5.657186 0,0 2.058371,2.84654 6.972964,2.84654 4.914593,0 6.972964,-2.84654 6.972964,-2.84654 z"
     sodipodi:nodetypes="czczc" />
  <path
     id="circle11-4-7-4"
     style="fill:#00ca51;stroke:url(#swatch6);stroke-width:8.00001;stroke-linecap:round;stroke-miterlimit:100;stroke-dasharray:none;paint-order:stroke markers fill;stop-color:#000000"
     d="m 162.7717,-1.448662 c 0,3.124379 -3.1219,5.657188 -6.97297,5.657188 -3.85106,0 -6.97296,-2.532809 -6.97296,-5.657188 0,-3.124378 0.19945,2.846541 6.97296,2.846541 6.77352,0 6.97297,-5.970919 6.97297,-2.846541 z"
     sodipodi:nodetypes="ssszs" />
  <path
     sodipodi:type="star"
     style="font-variation-settings:normal;opacity:1;fill:#00ca51;fill-opacity:1;stroke:url(#swatch6);stroke-width:8;stroke-linecap:round;stroke-linejoin:miter;stroke-miterlimit:100;stroke-dasharray:none;stroke-dashoffset:0;stroke-opacity:1;paint-order:stroke markers fill"
     id="path13"
     inkscape:flatsided="false"
     sodipodi:sides="10"
     sodipodi:cx="-44.688278"
     sodipodi:cy="33.197006"
     sodipodi:r1="35.856274"
     sodipodi:r2="17.928137"
     sodipodi:arg1="2.0722745"
     sodipodi:arg2="2.3864338"
     inkscape:rounded="0"
     inkscape:randomized="0"
     d="m -61.925186,64.638402 4.182308,-19.153373 -19.37114,3.017 14.641628,-13.037105 -17.44493,-8.945266 19.508344,-1.941106 -8.855349,-17.490745 16.923536,9.896329 3.116674,-19.3553535 7.874511,17.9537025 13.898234,-13.8268745 -4.182308,19.1533725 19.37114,-3.017 -14.641628,13.037105 17.4449296,8.945266 -19.5083446,1.941107 8.85535,17.490744 -16.923536,-9.896328 -3.116674,19.355353 -7.874512,-17.953703 z"
     inkscape:transform-center-x="-8.6184539"
     inkscape:transform-center-y="0.39654914"
     transform="translate(-51.551122,-48.359102)" />
  <ellipse
     style="font-variation-settings:normal;opacity:1;fill:url(#swatch6);fill-opacity:1;stroke:none;stroke-width:7.99999;stroke-linecap:round;stroke-linejoin:miter;stroke-miterlimit:100;stroke-dasharray:none;stroke-dashoffset:0;stroke-opacity:1;paint-order:stroke markers fill"
     id="path18"
     cx="67.638626"
     cy="8.7893562"
     rx="1.5569403"
     ry="2.7092066"
     transform="rotate(22.592281)" />
  <ellipse
     style="font-variation-settings:normal;opacity:1;fill:url(#swatch6);fill-opacity:1;stroke:none;stroke-width:7.99999;stroke-linecap:round;stroke-linejoin:miter;stroke-miterlimit:100;stroke-dasharray:none;stroke-dashoffset:0;stroke-opacity:1;paint-order:stroke markers fill"
     id="ellipse18"
     cx="-50.569519"
     cy="57.975975"
     rx="1.5569403"
     ry="2.7092066"
     transform="matrix(-0.92326198,0.38417094,0.38417094,0.92326198,0,0)" />
  <path
     d="m 55.51146,51.894423 a 5.5020043,5.2163681 0 0 0 -3.249482,-1.014169 5.5020043,5.2163681 0 0 0 -2.747573,0.69681 3.056669,2.8979822 0 0 0 3.030436,2.531975 3.056669,2.8979822 0 0 0 2.966619,-2.214616 z"
     style="fill:url(#linearGradient9);stroke-width:0.101"
     id="path23" />
  <g
     id="g32"
     inkscape:label="eye"
     transform="matrix(1.9999967,0,0,1.9999967,-229.89998,-54.828107)">
    <ellipse
       cx="125.50201"
       cy="-94.783272"
       id="circle4-7"
       style="fill:url(#swatch8);stroke-width:0.101"
       rx="5.5020041"
       ry="5.2163682" />
    <path
       d="m 128.75157,-98.985827 a 5.5020043,5.2163681 0 0 0 -3.24949,-1.014169 5.5020043,5.2163681 0 0 0 -2.74757,0.69681 3.056669,2.8979822 0 0 0 3.03044,2.531975 3.056669,2.8979822 0 0 0 2.96662,-2.214616 z"
       style="fill:url(#linearGradient30);stroke-width:0.101"
       id="path23-7" />
    <ellipse
       cx="125.50201"
       cy="-94.783272"
       id="ellipse37"
       style="fill:none;stroke:#000000;stroke-width:4;stroke-dasharray:none;stroke-opacity:0"
       rx="5.5020041"
       ry="5.2163682" />
  </g>
  <path
     d="m 158.64746,-7.822947 a 6.2304235,5.9069715 0 0 0 -3.11133,-0.789062 6.2304235,5.9069715 0 0 0 -3.67969,1.148437 3.4613464,3.2816508 0 0 0 3.35938,2.507813 3.4613464,3.2816508 0 0 0 3.43164,-2.867188 z"
     style="fill:url(#linearGradient10);stroke-width:0.101"
     id="path24" />
  <ellipse
     cx="-75.771263"
     cy="56.096977"
     id="ellipse24"
     style="fill:url(#swatch8);stroke-width:0.101"
     rx="5.5020041"
     ry="5.2163682"
     transform="scale(-1,1)" />
  <path
     id="path25"
     style="fill:#00ca51;stroke:url(#swatch6);stroke-width:8.00001;stroke-linecap:round;stroke-linejoin:round;stroke-miterlimit:100;stroke-dasharray:none;paint-order:stroke markers fill;stop-color:#000000"
     d="m 68.798297,59.15743 c 0,0 -0.329472,5.657186 6.972964,5.657186 7.302436,0 6.972964,-5.657186 6.972964,-5.657186 0,0 -2.058371,2.84654 -6.972964,2.84654 -4.914593,0 -6.972964,-2.84654 -6.972964,-2.84654 z"
     sodipodi:nodetypes="czczc" />
  <path
     d="m 72.521701,51.894423 a 5.5020043,5.2163681 0 0 1 3.249482,-1.014169 5.5020043,5.2163681 0 0 1 2.747573,0.69681 3.056669,2.8979822 0 0 1 -3.030436,2.531975 3.056669,2.8979822 0 0 1 -2.966619,-2.214616 z"
     style="fill:url(#linearGradient26);stroke-width:0.101"
     id="path26" />
  <circle
     style="font-variation-settings:normal;opacity:1;fill:url(#linearGradient28);stroke:url(#swatch6);stroke-width:8.00003;stroke-linecap:round;stroke-linejoin:round;stroke-miterlimit:100;stroke-dasharray:none;stroke-dashoffset:0;stroke-opacity:1;paint-order:stroke markers fill"
     id="path27"
     cx="64"
     cy="11.265964"
     r="5.0116758" />
  <g
     id="g33"
     inkscape:label="body"
     transform="matrix(1.9999967,0,0,1.9999967,-229.89998,-54.828107)">
    <path
       id="path8-24"
       style="fill:#00ca51;stroke:url(#swatch6);stroke-width:8;stroke-linecap:round;stroke-miterlimit:100;paint-order:stroke markers fill"
       d="m 220.50741,-76.669955 c 0,-11.657699 -7.5622,-19.716936 -7.86578,-21.961265 -2.66383,-19.69333 -9.05765,-30.29595 -24.26661,-30.29595 -15.86766,0 -22.53879,9.97177 -24.28913,30.282624 -0.11854,1.37546 -7.8101,10.460552 -7.8101,21.70707 0,11.246517 15.157,24.606656 32.09923,24.606656 16.94223,0 32.13239,-12.681437 32.13239,-24.339135 z"
       sodipodi:nodetypes="zssszsz" />
    <ellipse
       style="font-variation-settings:normal;fill:url(#swatch6);fill-opacity:1;stroke:none;stroke-width:7.99999;stroke-linecap:round;stroke-linejoin:miter;stroke-miterlimit:100;stroke-dasharray:none;stroke-dashoffset:0;stroke-opacity:1;paint-order:stroke markers fill"
       id="path18-5"
       cx="122.441"
       cy="-183.25554"
       rx="1.5569403"
       ry="2.7092066"
       transform="rotate(22.592281)" />
    <ellipse
       style="font-variation-settings:normal;fill:url(#swatch6);fill-opacity:1;stroke:none;stroke-width:7.99999;stroke-linecap:round;stroke-linejoin:miter;stroke-miterlimit:100;stroke-dasharray:none;stroke-dashoffset:0;stroke-opacity:1;paint-order:stroke markers fill"
       id="ellipse18-0"
       cx="-225.42859"
       cy="-38.506382"
       rx="1.5569403"
       ry="2.7092066"
       transform="matrix(-0.92326198,0.38417094,0.38417094,0.92326198,0,0)" />
    <path
       id="path37"
       style="font-variation-settings:normal;opacity:1;fill:none;fill-opacity:1;stroke:#000000;stroke-width:13;stroke-linecap:round;stroke-linejoin:miter;stroke-miterlimit:100;stroke-dasharray:none;stroke-dashoffset:0;stroke-opacity:0;paint-order:stroke markers fill;stop-color:#000000;stop-opacity:1"
       d="m 220.50741,-76.669955 c 0,-11.657699 -7.5622,-19.716936 -7.86578,-21.961265 -2.66383,-19.69333 -9.05765,-30.29595 -24.26661,-30.29595 -15.86766,0 -22.53879,9.97177 -24.28913,30.282624 -0.11854,1.37546 -7.8101,10.460552 -7.8101,21.70707 0,11.246517 15.157,24.606656 32.09923,24.606656 16.94223,0 32.13239,-12.681437 32.13239,-24.339135 z"
       sodipodi:nodetypes="zssszsz" />
  </g>
  <g
     id="g34"
     inkscape:label="eye_covers"
     transform="matrix(1.9999967,0,0,1.9999967,-229.89998,-54.828107)">
    <path
       id="circle11-4-7-6"
       style="fill:#00ca51;stroke:url(#swatch6);stroke-width:8.00001;stroke-linecap:round;stroke-linejoin:round;stroke-miterlimit:100;stroke-dasharray:none;paint-order:stroke markers fill;stop-color:#000000"
       d="m 267.2408,-99.012052 c 0,0 0.32948,5.657186 -6.97296,5.657186 -7.30244,0 -6.97296,-5.657186 -6.97296,-5.657186 0,0 2.05837,2.84654 6.97296,2.84654 4.91459,0 6.97296,-2.84654 6.97296,-2.84654 z"
       sodipodi:nodetypes="czczc" />
    <path
       id="path25-0"
       style="fill:#00ca51;stroke:url(#swatch6);stroke-width:8.00001;stroke-linecap:round;stroke-linejoin:round;stroke-miterlimit:100;stroke-dasharray:none;paint-order:stroke markers fill;stop-color:#000000"
       d="m 276.80424,-99.012052 c 0,0 -0.32947,5.657186 6.97296,5.657186 7.30244,0 6.97297,-5.657186 6.97297,-5.657186 0,0 -2.05838,2.84654 -6.97297,2.84654 -4.91459,0 -6.97296,-2.84654 -6.97296,-2.84654 z"
       sodipodi:nodetypes="czczc" />
    <path
       id="path38"
       style="font-variation-settings:normal;opacity:1;fill:none;fill-opacity:1;stroke:#000000;stroke-width:13;stroke-linecap:round;stroke-linejoin:round;stroke-miterlimit:100;stroke-dasharray:none;stroke-dashoffset:0;stroke-opacity:0;paint-order:stroke markers fill;stop-color:#000000;stop-opacity:1"
       d="m 267.2408,-99.012052 c 0,0 0.32948,5.657186 -6.97296,5.657186 -7.30244,0 -6.97296,-5.657186 -6.97296,-5.657186 0,0 2.05837,2.84654 6.97296,2.84654 4.91459,0 6.97296,-2.84654 6.97296,-2.84654 z"
       sodipodi:nodetypes="czczc" />
    <path
       id="path39"
       style="font-variation-settings:normal;opacity:1;fill:none;fill-opacity:1;stroke:#000000;stroke-width:13;stroke-linecap:round;stroke-linejoin:round;stroke-miterlimit:100;stroke-dasharray:none;stroke-dashoffset:0;stroke-opacity:0;paint-order:stroke markers fill;stop-color:#000000;stop-opacity:1"
       d="m 276.80424,-99.012052 c 0,0 -0.32947,5.657186 6.97296,5.657186 7.30244,0 6.97297,-5.657186 6.97297,-5.657186 0,0 -2.05838,2.84654 -6.97297,2.84654 -4.91459,0 -6.97296,-2.84654 -6.97296,-2.84654 z"
       sodipodi:nodetypes="czczc" />
  </g>
  <g
     id="g36"
     inkscape:label="tongue_tip"
     transform="matrix(1.9999967,0,0,1.9999967,-229.89998,-54.828107)">
    <circle
       style="font-variation-settings:normal;opacity:1;fill:none;fill-opacity:1;stroke:#000000;stroke-width:13;stroke-linecap:round;stroke-linejoin:miter;stroke-miterlimit:100;stroke-dasharray:none;stroke-dashoffset:0;stroke-opacity:0;paint-order:stroke markers fill;stop-color:#000000;stop-opacity:1"
       id="path27-1"
       cx="67.011688"
       cy="-86.988312"
       r="5.0116758"
       inkscape:label="tongue_tip" />
    <circle
       style="font-variation-settings:normal;fill:url(#linearGradient29);stroke:url(#swatch6);stroke-width:8.00003;stroke-linecap:round;stroke-linejoin:round;stroke-miterlimit:100;stroke-dasharray:none;stroke-dashoffset:0;stroke-opacity:1;paint-order:stroke markers fill"
       id="circle36"
       cx="67.011688"
       cy="-86.988312"
       r="5.0116758"
       inkscape:label="tongue_tip" />
  </g>
  <g
     id="g2"
     inkscape:label="body">
    <circle
       style="fill:url(#swatch6);stroke:none;stroke-width:0;stroke-linecap:round;stroke-linejoin:round;stroke-miterlimit:100;stroke-opacity:0;paint-order:stroke markers fill"
       id="path1"
       cx="481.5759"
       cy="-267.07465"
       r="32" />
    <circle
       style="fill:none;stroke:#000000;stroke-width:4;stroke-linecap:round;stroke-linejoin:round;stroke-miterlimit:100;stroke-opacity:0;paint-order:stroke markers fill;opacity:1;stroke-dasharray:none"
       id="circle2"
       cx="481.5759"
       cy="-267.07465"
       r="32" />
  </g>
  <g
     id="g3"
     inkscape:label="wing">
    <ellipse
       style="font-variation-settings:normal;opacity:0.5;vector-effect:none;fill:url(#swatch8);fill-opacity:1;stroke:url(#swatch6);stroke-width:8;stroke-linecap:round;stroke-linejoin:miter;stroke-miterlimit:100;stroke-dasharray:none;stroke-dashoffset:0;stroke-opacity:1;-inkscape-stroke:none;paint-order:stroke markers fill;stop-color:#000000;stop-opacity:1"
       id="circle1"
       cx="598.42267"
       cy="-267.26093"
       rx="46"
       ry="28" />
    <ellipse
       style="font-variation-settings:normal;opacity:1;fill:none;fill-opacity:1;stroke:#000000;stroke-width:12;stroke-linecap:round;stroke-linejoin:miter;stroke-miterlimit:100;stroke-dasharray:none;stroke-dashoffset:0;stroke-opacity:0;paint-order:stroke markers fill;stop-color:#000000;stop-opacity:1"
       id="ellipse2"
       cx="598.42267"
       cy="-267.26093"
       rx="46"
       ry="28" />
  </g>
</svg>
